<?xml version="1.0" encoding="utf-8"?>
<svg viewBox="28.629 15.281 318 344.07" xmlns="http://www.w3.org/2000/svg">
  <defs>
    <clipPath id="30cbff85d6">
      <path d="M 28.628906 15 L 346.628906 15 L 346.628906 359.542969 L 28.628906 359.542969 Z M 28.628906 15 " clip-rule="nonzero"/>
    </clipPath>
    <clipPath id="ef72c00749">
      <path d="M 28.632812 288.074219 L 28.632812 86.558594 C 28.632812 83.441406 28.839844 80.339844 29.25 77.25 C 29.65625 74.164062 30.261719 71.117188 31.070312 68.109375 C 31.878906 65.101562 32.882812 62.15625 34.074219 59.277344 C 35.273438 56.402344 36.648438 53.613281 38.210938 50.917969 C 39.773438 48.21875 41.503906 45.636719 43.40625 43.164062 C 45.304688 40.695312 47.363281 38.359375 49.570312 36.15625 C 51.78125 33.953125 54.121094 31.90625 56.601562 30.011719 C 59.078125 28.113281 61.671875 26.386719 64.378906 24.828125 C 67.078125 23.269531 69.878906 21.898438 72.761719 20.703125 C 75.648438 19.511719 78.597656 18.515625 81.613281 17.710938 C 84.632812 16.902344 87.691406 16.296875 90.789062 15.890625 C 93.882812 15.484375 96.992188 15.28125 100.117188 15.28125 C 103.242188 15.28125 106.351562 15.484375 109.449219 15.890625 C 112.542969 16.296875 115.601562 16.902344 118.617188 17.710938 C 121.632812 18.515625 124.585938 19.511719 127.476562 20.707031 C 130.359375 21.898438 133.152344 23.269531 135.859375 24.828125 L 310.886719 125.589844 C 312.238281 126.367188 313.5625 127.1875 314.859375 128.050781 C 316.15625 128.917969 317.421875 129.820312 318.660156 130.765625 C 319.898438 131.714844 321.101562 132.703125 322.273438 133.726562 C 323.449219 134.753906 324.589844 135.8125 325.691406 136.917969 C 326.792969 138.015625 327.859375 139.152344 328.890625 140.320312 C 329.914062 141.488281 330.90625 142.691406 331.855469 143.925781 C 332.804688 145.160156 333.714844 146.421875 334.578125 147.714844 C 335.445312 149.007812 336.269531 150.328125 337.050781 151.679688 C 337.832031 153.023438 338.566406 154.394531 339.253906 155.792969 C 339.945312 157.1875 340.589844 158.605469 341.1875 160.039062 C 341.785156 161.476562 342.335938 162.929688 342.832031 164.40625 C 343.335938 165.878906 343.789062 167.363281 344.191406 168.867188 C 344.597656 170.371094 344.949219 171.886719 345.253906 173.410156 C 345.558594 174.933594 345.8125 176.46875 346.015625 178.011719 C 346.222656 179.554688 346.371094 181.101562 346.476562 182.65625 C 346.578125 184.207031 346.628906 185.757812 346.628906 187.3125 C 346.628906 188.871094 346.578125 190.421875 346.476562 191.976562 C 346.371094 193.527344 346.21875 195.078125 346.015625 196.617188 C 345.8125 198.160156 345.558594 199.695312 345.253906 201.21875 C 344.949219 202.746094 344.597656 204.257812 344.191406 205.761719 C 343.789062 207.265625 343.335938 208.75 342.832031 210.226562 C 342.335938 211.699219 341.785156 213.152344 341.1875 214.589844 C 340.589844 216.027344 339.945312 217.445312 339.253906 218.839844 C 338.566406 220.234375 337.832031 221.605469 337.050781 222.953125 C 336.269531 224.296875 335.445312 225.621094 334.578125 226.914062 C 333.710938 228.207031 332.804688 229.472656 331.855469 230.707031 C 330.90625 231.941406 329.914062 233.140625 328.890625 234.308594 C 327.859375 235.480469 326.792969 236.613281 325.691406 237.714844 C 324.589844 238.8125 323.449219 239.878906 322.273438 240.902344 C 321.101562 241.925781 319.898438 242.914062 318.660156 243.859375 C 317.421875 244.808594 316.15625 245.710938 314.859375 246.578125 C 313.5625 247.441406 312.238281 248.261719 310.886719 249.042969 L 135.859375 349.800781 C 133.152344 351.355469 130.359375 352.730469 127.472656 353.925781 C 124.585938 355.113281 121.632812 356.117188 118.617188 356.921875 C 115.597656 357.726562 112.542969 358.335938 109.449219 358.738281 C 106.351562 359.144531 103.242188 359.351562 100.117188 359.351562 C 96.992188 359.351562 93.882812 359.144531 90.789062 358.738281 C 87.691406 358.335938 84.632812 357.726562 81.613281 356.921875 C 78.597656 356.117188 75.648438 355.113281 72.761719 353.925781 C 69.878906 352.730469 67.078125 351.355469 64.378906 349.800781 C 61.671875 348.246094 59.078125 346.515625 56.601562 344.621094 C 54.125 342.722656 51.78125 340.675781 49.574219 338.472656 C 47.363281 336.273438 45.308594 333.933594 43.40625 331.464844 C 41.503906 328.992188 39.773438 326.410156 38.210938 323.710938 C 36.648438 321.011719 35.273438 318.230469 34.074219 315.351562 C 32.882812 312.472656 31.878906 309.53125 31.070312 306.523438 C 30.261719 303.511719 29.65625 300.464844 29.25 297.378906 C 28.839844 294.289062 28.632812 291.1875 28.632812 288.074219 Z M 28.632812 288.074219 " clip-rule="nonzero"/>
    </clipPath>
    <clipPath id="908f9b8745">
      <path d="M 28.628906 19.339844 L 306.667969 19.339844 L 306.667969 355 L 28.628906 355 Z M 28.628906 19.339844 " clip-rule="nonzero"/>
    </clipPath>
    <clipPath id="4bbdd2c8d6">
      <path d="M 74.902344 19.871094 C 73.214844 20.503906 71.554688 21.199219 69.917969 21.957031 C 68.285156 22.71875 66.679688 23.535156 65.105469 24.417969 C 63.535156 25.300781 62 26.238281 60.496094 27.234375 C 58.996094 28.230469 57.539062 29.28125 56.117188 30.386719 C 54.691406 31.492188 53.316406 32.652344 51.984375 33.863281 C 50.652344 35.074219 49.363281 36.332031 48.125 37.640625 C 46.886719 38.949219 45.703125 40.300781 44.566406 41.699219 C 43.429688 43.09375 42.351562 44.535156 41.328125 46.007812 C 40.300781 47.488281 39.332031 49.003906 38.421875 50.558594 C 37.511719 52.109375 36.660156 53.691406 35.867188 55.308594 C 35.078125 56.921875 34.347656 58.566406 33.683594 60.234375 C 33.015625 61.910156 32.414062 63.601562 31.878906 65.316406 C 31.339844 67.035156 30.867188 68.765625 30.464844 70.519531 C 30.058594 72.269531 29.71875 74.035156 29.445312 75.816406 C 29.175781 77.589844 28.972656 79.375 28.835938 81.171875 C 28.699219 82.960938 28.628906 84.757812 28.628906 86.554688 L 28.628906 288.074219 C 28.628906 289.871094 28.699219 291.667969 28.835938 293.457031 C 28.972656 295.253906 29.175781 297.039062 29.445312 298.8125 C 29.71875 300.59375 30.058594 302.355469 30.464844 304.109375 C 30.867188 305.863281 31.339844 307.59375 31.878906 309.308594 C 32.417969 311.027344 33.015625 312.71875 33.683594 314.394531 C 34.351562 316.0625 35.082031 317.707031 35.871094 319.320312 C 36.664062 320.9375 37.515625 322.519531 38.421875 324.070312 C 39.332031 325.625 40.304688 327.140625 41.328125 328.621094 C 42.351562 330.097656 43.433594 331.535156 44.566406 332.929688 C 45.707031 334.328125 46.890625 335.679688 48.125 336.988281 C 49.363281 338.296875 50.652344 339.554688 51.984375 340.765625 C 53.316406 341.976562 54.691406 343.132812 56.117188 344.242188 C 57.539062 345.347656 58.996094 346.398438 60.496094 347.394531 C 62 348.390625 63.539062 349.328125 65.109375 350.210938 C 66.679688 351.09375 68.285156 351.910156 69.921875 352.671875 C 71.554688 353.429688 73.214844 354.125 74.902344 354.761719 C 83.984375 353.535156 92.496094 350.640625 100.4375 346.074219 L 271.449219 247.625 C 274.09375 246.101562 276.625 244.417969 279.050781 242.5625 C 281.46875 240.710938 283.757812 238.710938 285.917969 236.558594 C 288.078125 234.40625 290.082031 232.125 291.941406 229.710938 C 293.800781 227.296875 295.492188 224.769531 297.015625 222.136719 C 298.542969 219.5 299.890625 216.777344 301.058594 213.964844 C 302.226562 211.15625 303.203125 208.28125 303.996094 205.335938 C 304.785156 202.398438 305.378906 199.421875 305.777344 196.402344 C 306.179688 193.386719 306.378906 190.355469 306.378906 187.3125 C 306.378906 184.273438 306.179688 181.238281 305.777344 178.226562 C 305.378906 175.207031 304.785156 172.230469 303.996094 169.289062 C 303.203125 166.347656 302.226562 163.472656 301.058594 160.664062 C 299.890625 157.851562 298.542969 155.128906 297.015625 152.492188 C 295.492188 149.859375 293.800781 147.332031 291.941406 144.917969 C 290.082031 142.503906 288.078125 140.21875 285.917969 138.070312 C 283.757812 135.917969 281.46875 133.914062 279.046875 132.066406 C 276.625 130.210938 274.09375 128.523438 271.449219 127.003906 L 100.4375 28.5625 C 92.5 23.996094 83.984375 21.09375 74.902344 19.871094 Z M 74.902344 19.871094 " clip-rule="nonzero"/>
    </clipPath>
    <clipPath id="456316ba64">
      <path d="M 28.628906 40.601562 L 272 40.601562 L 272 334 L 28.628906 334 Z M 28.628906 40.601562 " clip-rule="nonzero"/>
    </clipPath>
    <clipPath id="4d7cf36b0e">
      <path d="M 61.335938 40.902344 C 54.964844 40.984375 48.765625 42.039062 42.730469 44.0625 C 40.453125 47.113281 38.4375 50.328125 36.679688 53.703125 C 34.921875 57.074219 33.445312 60.566406 32.25 64.175781 C 31.046875 67.785156 30.148438 71.46875 29.542969 75.222656 C 28.929688 78.976562 28.628906 82.753906 28.628906 86.554688 L 28.628906 288.074219 C 28.628906 291.875 28.929688 295.652344 29.542969 299.40625 C 30.148438 303.160156 31.046875 306.84375 32.246094 310.453125 C 33.441406 314.058594 34.914062 317.550781 36.675781 320.925781 C 38.429688 324.300781 40.445312 327.515625 42.71875 330.566406 C 44.757812 331.25 46.828125 331.824219 48.925781 332.289062 C 51.027344 332.753906 53.148438 333.105469 55.28125 333.34375 C 57.417969 333.582031 59.5625 333.710938 61.714844 333.726562 C 63.867188 333.738281 66.015625 333.636719 68.152344 333.425781 C 70.292969 333.210938 72.414062 332.882812 74.523438 332.449219 C 76.625 332.007812 78.703125 331.460938 80.75 330.800781 C 82.796875 330.144531 84.804688 329.382812 86.769531 328.511719 C 88.734375 327.640625 90.648438 326.667969 92.511719 325.597656 L 241.472656 239.847656 C 242.621094 239.183594 243.746094 238.484375 244.851562 237.75 C 245.953125 237.015625 247.035156 236.242188 248.089844 235.4375 C 249.140625 234.628906 250.167969 233.789062 251.164062 232.917969 C 252.164062 232.046875 253.132812 231.140625 254.070312 230.203125 C 255.007812 229.269531 255.917969 228.300781 256.792969 227.308594 C 257.667969 226.3125 258.507812 225.292969 259.316406 224.238281 C 260.125 223.1875 260.898438 222.117188 261.632812 221.011719 C 262.371094 219.914062 263.074219 218.789062 263.738281 217.640625 C 264.402344 216.496094 265.027344 215.328125 265.613281 214.140625 C 266.199219 212.957031 266.75 211.75 267.257812 210.527344 C 267.765625 209.304688 268.234375 208.066406 268.660156 206.8125 C 269.085938 205.558594 269.46875 204.292969 269.8125 203.011719 C 270.160156 201.734375 270.460938 200.445312 270.722656 199.148438 C 270.980469 197.851562 271.195312 196.546875 271.371094 195.230469 C 271.542969 193.917969 271.671875 192.601562 271.757812 191.28125 C 271.84375 189.960938 271.886719 188.640625 271.886719 187.3125 C 271.886719 185.988281 271.84375 184.667969 271.757812 183.347656 C 271.671875 182.027344 271.542969 180.707031 271.367188 179.394531 C 271.195312 178.082031 270.980469 176.777344 270.722656 175.480469 C 270.460938 174.183594 270.160156 172.894531 269.8125 171.617188 C 269.46875 170.339844 269.085938 169.070312 268.660156 167.816406 C 268.234375 166.566406 267.765625 165.324219 267.257812 164.101562 C 266.75 162.878906 266.199219 161.671875 265.613281 160.484375 C 265.027344 159.300781 264.402344 158.132812 263.738281 156.984375 C 263.074219 155.839844 262.371094 154.714844 261.632812 153.617188 C 260.898438 152.511719 260.125 151.441406 259.316406 150.390625 C 258.507812 149.335938 257.667969 148.316406 256.792969 147.320312 C 255.917969 146.328125 255.007812 145.359375 254.070312 144.425781 C 253.132812 143.488281 252.164062 142.582031 251.164062 141.710938 C 250.167969 140.835938 249.140625 140 248.089844 139.191406 C 247.035156 138.386719 245.953125 137.613281 244.851562 136.878906 C 243.746094 136.140625 242.621094 135.445312 241.472656 134.78125 L 92.511719 49.03125 C 87.777344 46.304688 82.765625 44.25 77.472656 42.871094 C 72.183594 41.492188 66.800781 40.835938 61.335938 40.902344 Z M 61.335938 40.902344 " clip-rule="nonzero"/>
    </clipPath>
    <clipPath id="97e042c3ef">
      <path d="M 28.628906 59 L 237.683594 59 L 237.683594 314.992188 L 28.628906 314.992188 Z M 28.628906 59 " clip-rule="nonzero"/>
    </clipPath>
    <clipPath id="7efd0d44ae">
      <path d="M 53.496094 59.691406 C 47.941406 59.761719 42.53125 60.679688 37.269531 62.445312 C 33.976562 66.867188 31.324219 71.636719 29.304688 76.765625 C 28.855469 80.011719 28.628906 83.273438 28.632812 86.554688 L 28.632812 288.074219 C 28.636719 291.363281 28.863281 294.632812 29.324219 297.890625 C 31.339844 303.003906 33.992188 307.773438 37.277344 312.183594 C 40.839844 313.375 44.492188 314.183594 48.230469 314.601562 C 51.964844 315.019531 55.703125 315.046875 59.445312 314.671875 C 63.1875 314.296875 66.851562 313.539062 70.425781 312.386719 C 74.007812 311.238281 77.421875 309.726562 80.679688 307.851562 L 210.519531 233.097656 C 211.519531 232.523438 212.5 231.917969 213.464844 231.269531 C 214.425781 230.628906 215.367188 229.957031 216.285156 229.257812 C 217.203125 228.554688 218.097656 227.824219 218.964844 227.0625 C 219.835938 226.300781 220.679688 225.511719 221.496094 224.699219 C 222.316406 223.882812 223.105469 223.039062 223.871094 222.171875 C 224.632812 221.304688 225.363281 220.414062 226.070312 219.496094 C 226.773438 218.582031 227.445312 217.644531 228.085938 216.683594 C 228.734375 215.722656 229.34375 214.746094 229.921875 213.746094 C 230.5 212.75 231.046875 211.730469 231.558594 210.695312 C 232.070312 209.660156 232.542969 208.613281 232.988281 207.542969 C 233.433594 206.480469 233.835938 205.402344 234.210938 204.308594 C 234.582031 203.214844 234.917969 202.109375 235.21875 200.996094 C 235.515625 199.882812 235.777344 198.761719 236.003906 197.628906 C 236.230469 196.496094 236.421875 195.359375 236.570312 194.214844 C 236.722656 193.070312 236.832031 191.921875 236.90625 190.769531 C 236.984375 189.621094 237.023438 188.46875 237.023438 187.3125 C 237.023438 186.160156 236.984375 185.007812 236.90625 183.855469 C 236.832031 182.707031 236.722656 181.558594 236.570312 180.414062 C 236.421875 179.269531 236.230469 178.128906 236.003906 177 C 235.777344 175.867188 235.515625 174.746094 235.21875 173.632812 C 234.917969 172.519531 234.582031 171.414062 234.210938 170.324219 C 233.835938 169.226562 233.433594 168.148438 232.988281 167.082031 C 232.542969 166.015625 232.070312 164.96875 231.558594 163.929688 C 231.046875 162.898438 230.5 161.878906 229.921875 160.882812 C 229.34375 159.882812 228.734375 158.902344 228.085938 157.941406 C 227.445312 156.980469 226.773438 156.042969 226.070312 155.132812 C 225.363281 154.21875 224.632812 153.324219 223.871094 152.457031 C 223.105469 151.585938 222.316406 150.75 221.496094 149.929688 C 220.679688 149.117188 219.835938 148.328125 218.964844 147.566406 C 218.097656 146.804688 217.203125 146.074219 216.285156 145.371094 C 215.367188 144.667969 214.425781 143.996094 213.464844 143.355469 C 212.5 142.714844 211.519531 142.105469 210.519531 141.53125 L 80.679688 66.777344 C 76.550781 64.398438 72.183594 62.609375 67.570312 61.40625 C 62.957031 60.203125 58.265625 59.628906 53.5 59.691406 Z M 53.496094 59.691406 " clip-rule="nonzero"/>
    </clipPath>
    <clipPath id="9e8df48801">
      <path d="M 28.628906 15.289062 L 174.789062 15.289062 L 174.789062 359.542969 L 28.628906 359.542969 Z M 28.628906 15.289062 " clip-rule="nonzero"/>
    </clipPath>
    <clipPath id="76fa5d0959">
      <path d="M 93.835938 15.570312 C 56.941406 18.8125 28.632812 49.621094 28.628906 86.554688 L 28.628906 288.082031 C 28.632812 325.019531 56.941406 355.824219 93.835938 359.066406 C 61.269531 343.246094 59.671875 300.738281 91.226562 282.570312 L 137.691406 254.175781 C 161.515625 240.457031 174.480469 211.320312 174.480469 187.316406 C 174.480469 163.3125 161.515625 134.179688 137.691406 120.464844 L 91.226562 92.066406 C 59.671875 73.894531 61.269531 31.394531 93.835938 15.570312 Z M 93.835938 15.570312 " clip-rule="nonzero"/>
    </clipPath>
    <clipPath id="ce5246f401">
      <path d="M 28.628906 187 L 163.628906 187 L 163.628906 359.542969 L 28.628906 359.542969 Z M 28.628906 187 " clip-rule="nonzero"/>
    </clipPath>
    <clipPath id="a253e21952">
      <path d="M 93.835938 359.066406 C 56.941406 355.824219 28.632812 325.019531 28.628906 288.082031 L 28.628906 187.316406 L 163.574219 187.316406 C 163.574219 211.320312 151.667969 235.328125 127.84375 249.046875 L 79.238281 277.023438 C 47.683594 295.191406 45.851562 346.230469 93.835938 359.066406 Z M 93.835938 359.066406 " clip-rule="nonzero"/>
    </clipPath>
  </defs>
  <g clip-path="url(#30cbff85d6)">
    <g clip-path="url(#ef72c00749)">
      <path fill="#8437fd" d="M 28.632812 15.28125 L 28.632812 359.351562 L 346.628906 359.351562 L 346.628906 15.28125 Z M 28.632812 15.28125 " fill-opacity="1" fill-rule="nonzero"/>
    </g>
  </g>
  <g clip-path="url(#908f9b8745)">
    <g clip-path="url(#4bbdd2c8d6)">
      <path fill="#6a2bcf" d="M 28.628906 19.871094 L 28.628906 354.761719 L 306.378906 354.761719 L 306.378906 19.871094 Z M 28.628906 19.871094 " fill-opacity="1" fill-rule="nonzero"/>
    </g>
  </g>
  <g clip-path="url(#456316ba64)">
    <g clip-path="url(#4d7cf36b0e)">
      <path fill="#5622aa" d="M 28.628906 40.835938 L 28.628906 333.738281 L 271.886719 333.738281 L 271.886719 40.835938 Z M 28.628906 40.835938 " fill-opacity="1" fill-rule="nonzero"/>
    </g>
  </g>
  <g clip-path="url(#97e042c3ef)">
    <g clip-path="url(#7efd0d44ae)">
      <path fill="#3e187b" d="M 28.628906 59.628906 L 28.628906 315.046875 L 237.023438 315.046875 L 237.023438 59.628906 Z M 28.628906 59.628906 " fill-opacity="1" fill-rule="nonzero"/>
    </g>
  </g>
  <g clip-path="url(#9e8df48801)">
    <g clip-path="url(#76fa5d0959)">
      <path fill="#00efc8" d="M 28.628906 15.570312 L 28.628906 359.066406 L 174.480469 359.066406 L 174.480469 15.570312 Z M 28.628906 15.570312 " fill-opacity="1" fill-rule="nonzero"/>
    </g>
  </g>
  <g clip-path="url(#ce5246f401)">
    <g clip-path="url(#a253e21952)">
      <path fill="#00efc8" d="M 28.628906 187.316406 L 163.574219 187.316406 L 163.574219 359.066406 L 28.628906 359.066406 Z M 28.628906 187.316406 " fill-opacity="1" fill-rule="nonzero"/>
    </g>
  </g>
</svg>