<?xml version="1.0" encoding="utf-8"?>
<svg viewBox="18.906 135.406 322.403 94.242" xmlns="http://www.w3.org/2000/svg">
  <defs>
    <clipPath id="5cd0b8c14f">
      <path d="M 18.90625 135.277344 L 105.90625 135.277344 L 105.90625 229.699219 L 18.90625 229.699219 Z M 18.90625 135.277344 " clip-rule="nonzero"/>
    </clipPath>
    <clipPath id="5d89d8c40f">
      <path d="M 18.90625 210.125 L 18.90625 154.929688 C 18.90625 154.074219 18.964844 153.226562 19.074219 152.378906 C 19.1875 151.535156 19.355469 150.699219 19.574219 149.875 C 19.796875 149.050781 20.070312 148.246094 20.394531 147.457031 C 20.722656 146.667969 21.101562 145.90625 21.527344 145.164062 C 21.957031 144.425781 22.429688 143.71875 22.949219 143.042969 C 23.46875 142.367188 24.03125 141.726562 24.636719 141.121094 C 25.242188 140.519531 25.882812 139.957031 26.558594 139.4375 C 27.238281 138.917969 27.945312 138.445312 28.6875 138.019531 C 29.425781 137.59375 30.191406 137.21875 30.980469 136.890625 C 31.769531 136.5625 32.578125 136.292969 33.402344 136.070312 C 34.230469 135.847656 35.066406 135.683594 35.914062 135.570312 C 36.757812 135.460938 37.609375 135.40625 38.464844 135.40625 C 39.320312 135.40625 40.167969 135.460938 41.019531 135.570312 C 41.863281 135.683594 42.703125 135.847656 43.527344 136.070312 C 44.351562 136.292969 45.160156 136.5625 45.949219 136.890625 C 46.738281 137.21875 47.503906 137.59375 48.242188 138.019531 L 96.128906 165.621094 C 96.496094 165.832031 96.859375 166.058594 97.214844 166.292969 C 97.570312 166.53125 97.914062 166.777344 98.253906 167.039062 C 98.59375 167.296875 98.921875 167.566406 99.242188 167.847656 C 99.566406 168.128906 99.875 168.417969 100.179688 168.722656 C 100.480469 169.023438 100.769531 169.335938 101.054688 169.652344 C 101.332031 169.972656 101.605469 170.304688 101.863281 170.640625 C 102.125 170.980469 102.375 171.324219 102.609375 171.679688 C 102.847656 172.035156 103.074219 172.394531 103.285156 172.765625 C 103.5 173.132812 103.699219 173.507812 103.890625 173.890625 C 104.078125 174.273438 104.253906 174.660156 104.417969 175.054688 C 104.582031 175.449219 104.730469 175.847656 104.867188 176.25 C 105.007812 176.652344 105.128906 177.0625 105.238281 177.472656 C 105.351562 177.886719 105.445312 178.300781 105.53125 178.71875 C 105.613281 179.136719 105.683594 179.554688 105.738281 179.976562 C 105.796875 180.398438 105.835938 180.824219 105.863281 181.25 C 105.894531 181.675781 105.90625 182.101562 105.90625 182.527344 C 105.90625 182.953125 105.894531 183.378906 105.863281 183.804688 C 105.835938 184.226562 105.792969 184.652344 105.738281 185.074219 C 105.683594 185.496094 105.613281 185.917969 105.53125 186.335938 C 105.445312 186.753906 105.351562 187.167969 105.238281 187.578125 C 105.128906 187.992188 105.007812 188.398438 104.867188 188.800781 C 104.730469 189.203125 104.582031 189.601562 104.417969 189.996094 C 104.253906 190.390625 104.078125 190.777344 103.890625 191.160156 C 103.699219 191.542969 103.5 191.917969 103.285156 192.289062 C 103.074219 192.65625 102.847656 193.019531 102.609375 193.371094 C 102.371094 193.726562 102.125 194.074219 101.863281 194.410156 C 101.605469 194.75 101.332031 195.078125 101.054688 195.398438 C 100.769531 195.71875 100.480469 196.03125 100.179688 196.332031 C 99.875 196.632812 99.566406 196.921875 99.242188 197.203125 C 98.921875 197.484375 98.59375 197.753906 98.253906 198.015625 C 97.914062 198.273438 97.570312 198.519531 97.214844 198.757812 C 96.859375 198.996094 96.496094 199.21875 96.128906 199.433594 L 48.242188 227.03125 C 47.503906 227.457031 46.738281 227.835938 45.949219 228.160156 C 45.160156 228.488281 44.351562 228.761719 43.527344 228.984375 C 42.699219 229.203125 41.863281 229.371094 41.019531 229.480469 C 40.167969 229.589844 39.320312 229.648438 38.464844 229.648438 C 37.609375 229.648438 36.757812 229.589844 35.914062 229.480469 C 35.066406 229.371094 34.230469 229.203125 33.402344 228.984375 C 32.578125 228.761719 31.769531 228.488281 30.980469 228.160156 C 30.191406 227.835938 29.425781 227.457031 28.6875 227.03125 C 27.945312 226.605469 27.238281 226.132812 26.558594 225.613281 C 25.882812 225.09375 25.242188 224.53125 24.636719 223.929688 C 24.03125 223.328125 23.46875 222.6875 22.949219 222.007812 C 22.429688 221.332031 21.957031 220.625 21.527344 219.886719 C 21.101562 219.148438 20.722656 218.382812 20.394531 217.597656 C 20.070312 216.808594 19.796875 216.003906 19.574219 215.179688 C 19.355469 214.351562 19.1875 213.519531 19.074219 212.671875 C 18.964844 211.828125 18.90625 210.976562 18.90625 210.125 Z M 18.90625 210.125 " clip-rule="nonzero"/>
    </clipPath>
    <clipPath id="91015f71ee">
      <path d="M 18.90625 136.515625 L 94.972656 136.515625 L 94.972656 228.589844 L 18.90625 228.589844 Z M 18.90625 136.515625 " clip-rule="nonzero"/>
    </clipPath>
    <clipPath id="e70113a07a">
      <path d="M 31.566406 136.660156 C 31.105469 136.835938 30.648438 137.027344 30.203125 137.234375 C 29.753906 137.441406 29.316406 137.664062 28.886719 137.90625 C 28.457031 138.148438 28.035156 138.40625 27.625 138.679688 C 27.214844 138.953125 26.816406 139.238281 26.425781 139.542969 C 26.039062 139.84375 25.660156 140.164062 25.296875 140.496094 C 24.929688 140.824219 24.578125 141.171875 24.242188 141.527344 C 23.902344 141.886719 23.578125 142.257812 23.265625 142.640625 C 22.957031 143.023438 22.660156 143.417969 22.378906 143.820312 C 22.101562 144.226562 21.835938 144.640625 21.585938 145.066406 C 21.335938 145.492188 21.101562 145.925781 20.886719 146.367188 C 20.671875 146.808594 20.472656 147.261719 20.289062 147.71875 C 20.105469 148.175781 19.941406 148.640625 19.796875 149.109375 C 19.648438 149.582031 19.519531 150.054688 19.410156 150.535156 C 19.296875 151.015625 19.203125 151.496094 19.128906 151.984375 C 19.054688 152.472656 19 152.960938 18.964844 153.453125 C 18.925781 153.941406 18.90625 154.433594 18.90625 154.925781 L 18.90625 210.125 C 18.90625 210.617188 18.925781 211.109375 18.964844 211.597656 C 19 212.089844 19.054688 212.578125 19.128906 213.066406 C 19.203125 213.554688 19.296875 214.035156 19.410156 214.515625 C 19.519531 214.996094 19.648438 215.472656 19.796875 215.941406 C 19.941406 216.410156 20.105469 216.875 20.289062 217.332031 C 20.472656 217.789062 20.671875 218.242188 20.886719 218.683594 C 21.105469 219.125 21.335938 219.558594 21.585938 219.984375 C 21.835938 220.410156 22.101562 220.824219 22.378906 221.230469 C 22.660156 221.636719 22.957031 222.027344 23.265625 222.410156 C 23.578125 222.792969 23.902344 223.164062 24.242188 223.523438 C 24.578125 223.882812 24.929688 224.226562 25.296875 224.558594 C 25.660156 224.890625 26.039062 225.207031 26.425781 225.507812 C 26.816406 225.8125 27.214844 226.101562 27.625 226.375 C 28.035156 226.644531 28.457031 226.902344 28.886719 227.144531 C 29.316406 227.386719 29.753906 227.609375 30.203125 227.816406 C 30.648438 228.027344 31.105469 228.21875 31.566406 228.390625 C 34.050781 228.054688 36.378906 227.261719 38.550781 226.011719 L 85.339844 199.046875 C 86.0625 198.628906 86.753906 198.167969 87.417969 197.660156 C 88.078125 197.152344 88.707031 196.605469 89.296875 196.015625 C 89.886719 195.425781 90.4375 194.800781 90.945312 194.136719 C 91.453125 193.476562 91.917969 192.785156 92.332031 192.0625 C 92.75 191.34375 93.121094 190.597656 93.4375 189.824219 C 93.757812 189.054688 94.027344 188.269531 94.242188 187.460938 C 94.457031 186.65625 94.621094 185.84375 94.730469 185.015625 C 94.839844 184.1875 94.894531 183.359375 94.894531 182.527344 C 94.894531 181.691406 94.839844 180.863281 94.730469 180.035156 C 94.621094 179.210938 94.457031 178.394531 94.242188 177.589844 C 94.027344 176.78125 93.757812 175.996094 93.4375 175.226562 C 93.121094 174.457031 92.75 173.710938 92.332031 172.988281 C 91.917969 172.265625 91.453125 171.574219 90.945312 170.914062 C 90.4375 170.25 89.886719 169.625 89.296875 169.039062 C 88.707031 168.449219 88.078125 167.898438 87.417969 167.394531 C 86.753906 166.882812 86.0625 166.421875 85.339844 166.007812 L 38.550781 139.042969 C 36.378906 137.792969 34.050781 136.996094 31.566406 136.660156 Z M 31.566406 136.660156 " clip-rule="nonzero"/>
    </clipPath>
    <clipPath id="982d115651">
      <path d="M 18.90625 142.339844 L 85.539062 142.339844 L 85.539062 222.769531 L 18.90625 222.769531 Z M 18.90625 142.339844 " clip-rule="nonzero"/>
    </clipPath>
    <clipPath id="6bb9a418e4">
      <path d="M 27.855469 142.421875 C 26.113281 142.445312 24.414062 142.734375 22.765625 143.289062 C 22.140625 144.125 21.589844 145.003906 21.109375 145.929688 C 20.628906 146.851562 20.222656 147.808594 19.898438 148.796875 C 19.566406 149.785156 19.320312 150.792969 19.15625 151.824219 C 18.988281 152.851562 18.90625 153.886719 18.90625 154.925781 L 18.90625 210.125 C 18.90625 211.167969 18.988281 212.199219 19.15625 213.230469 C 19.320312 214.257812 19.566406 215.265625 19.894531 216.253906 C 20.222656 217.242188 20.625 218.199219 21.109375 219.125 C 21.589844 220.046875 22.140625 220.929688 22.761719 221.761719 C 23.320312 221.949219 23.886719 222.109375 24.460938 222.234375 C 25.035156 222.363281 25.613281 222.457031 26.199219 222.523438 C 26.78125 222.589844 27.371094 222.625 27.957031 222.628906 C 28.546875 222.632812 29.132812 222.605469 29.71875 222.546875 C 30.304688 222.488281 30.886719 222.398438 31.460938 222.277344 C 32.039062 222.160156 32.605469 222.007812 33.167969 221.828125 C 33.726562 221.648438 34.277344 221.441406 34.8125 221.203125 C 35.351562 220.960938 35.875 220.695312 36.382812 220.402344 L 77.136719 196.914062 C 77.453125 196.734375 77.757812 196.542969 78.0625 196.339844 C 78.363281 196.140625 78.660156 195.929688 78.949219 195.707031 C 79.234375 195.484375 79.515625 195.257812 79.789062 195.015625 C 80.0625 194.777344 80.328125 194.53125 80.582031 194.273438 C 80.839844 194.019531 81.089844 193.753906 81.328125 193.480469 C 81.566406 193.207031 81.796875 192.929688 82.019531 192.640625 C 82.242188 192.351562 82.453125 192.058594 82.652344 191.757812 C 82.855469 191.453125 83.046875 191.148438 83.230469 190.832031 C 83.410156 190.519531 83.582031 190.199219 83.742188 189.875 C 83.902344 189.550781 84.054688 189.21875 84.191406 188.882812 C 84.332031 188.550781 84.457031 188.210938 84.574219 187.867188 C 84.691406 187.523438 84.796875 187.175781 84.890625 186.824219 C 84.984375 186.476562 85.066406 186.121094 85.140625 185.765625 C 85.210938 185.410156 85.269531 185.054688 85.316406 184.695312 C 85.363281 184.335938 85.398438 183.972656 85.421875 183.613281 C 85.445312 183.25 85.457031 182.890625 85.457031 182.527344 C 85.457031 182.164062 85.445312 181.800781 85.421875 181.4375 C 85.398438 181.078125 85.363281 180.714844 85.316406 180.355469 C 85.269531 179.996094 85.210938 179.640625 85.140625 179.285156 C 85.066406 178.929688 84.984375 178.574219 84.890625 178.226562 C 84.796875 177.875 84.691406 177.527344 84.574219 177.183594 C 84.457031 176.84375 84.332031 176.503906 84.191406 176.167969 C 84.054688 175.832031 83.902344 175.503906 83.742188 175.175781 C 83.582031 174.851562 83.410156 174.53125 83.230469 174.21875 C 83.046875 173.90625 82.855469 173.597656 82.652344 173.296875 C 82.453125 172.992188 82.242188 172.699219 82.019531 172.410156 C 81.796875 172.125 81.566406 171.84375 81.328125 171.570312 C 81.089844 171.300781 80.839844 171.035156 80.582031 170.777344 C 80.328125 170.519531 80.0625 170.273438 79.789062 170.035156 C 79.515625 169.796875 79.234375 169.566406 78.949219 169.34375 C 78.660156 169.125 78.363281 168.914062 78.0625 168.710938 C 77.757812 168.507812 77.453125 168.320312 77.136719 168.136719 L 36.382812 144.648438 C 35.089844 143.902344 33.71875 143.339844 32.269531 142.960938 C 30.824219 142.585938 29.351562 142.40625 27.855469 142.421875 Z M 27.855469 142.421875 " clip-rule="nonzero"/>
    </clipPath>
    <clipPath id="6390fc841b">
      <path d="M 18.90625 147.332031 L 76 147.332031 L 76 217.5 L 18.90625 217.5 Z M 18.90625 147.332031 " clip-rule="nonzero"/>
    </clipPath>
    <clipPath id="db9108d8d0">
      <path d="M 25.710938 147.570312 C 24.191406 147.589844 22.710938 147.839844 21.269531 148.324219 C 20.371094 149.535156 19.644531 150.839844 19.089844 152.246094 C 18.96875 153.136719 18.90625 154.027344 18.90625 154.925781 L 18.90625 210.125 C 18.910156 211.023438 18.972656 211.921875 19.097656 212.8125 C 19.648438 214.214844 20.375 215.519531 21.273438 216.726562 C 22.246094 217.054688 23.246094 217.277344 24.269531 217.390625 C 25.292969 217.507812 26.3125 217.511719 27.335938 217.410156 C 28.363281 217.308594 29.363281 217.101562 30.339844 216.785156 C 31.320312 216.46875 32.253906 216.054688 33.148438 215.542969 L 68.667969 195.066406 C 68.941406 194.910156 69.210938 194.742188 69.476562 194.566406 C 69.738281 194.390625 69.996094 194.207031 70.246094 194.015625 C 70.496094 193.820312 70.742188 193.621094 70.980469 193.414062 C 71.21875 193.203125 71.449219 192.988281 71.671875 192.765625 C 71.898438 192.542969 72.113281 192.3125 72.320312 192.074219 C 72.53125 191.835938 72.730469 191.59375 72.921875 191.339844 C 73.117188 191.089844 73.300781 190.835938 73.476562 190.570312 C 73.652344 190.308594 73.820312 190.039062 73.976562 189.765625 C 74.136719 189.492188 74.285156 189.214844 74.425781 188.929688 C 74.566406 188.648438 74.695312 188.359375 74.816406 188.066406 C 74.9375 187.777344 75.046875 187.480469 75.148438 187.179688 C 75.253906 186.882812 75.34375 186.578125 75.425781 186.273438 C 75.507812 185.96875 75.578125 185.660156 75.640625 185.351562 C 75.703125 185.042969 75.753906 184.730469 75.796875 184.417969 C 75.835938 184.101562 75.867188 183.789062 75.886719 183.472656 C 75.910156 183.15625 75.917969 182.84375 75.917969 182.527344 C 75.917969 182.210938 75.910156 181.894531 75.886719 181.578125 C 75.867188 181.265625 75.835938 180.949219 75.796875 180.636719 C 75.753906 180.324219 75.703125 180.011719 75.640625 179.699219 C 75.578125 179.390625 75.507812 179.082031 75.425781 178.777344 C 75.34375 178.472656 75.253906 178.171875 75.148438 177.871094 C 75.046875 177.570312 74.9375 177.277344 74.816406 176.984375 C 74.695312 176.691406 74.566406 176.40625 74.425781 176.121094 C 74.285156 175.839844 74.136719 175.558594 73.976562 175.285156 C 73.820312 175.011719 73.652344 174.746094 73.476562 174.480469 C 73.300781 174.21875 73.117188 173.960938 72.921875 173.710938 C 72.730469 173.460938 72.53125 173.214844 72.320312 172.976562 C 72.113281 172.738281 71.898438 172.511719 71.671875 172.285156 C 71.449219 172.0625 71.21875 171.847656 70.980469 171.636719 C 70.742188 171.429688 70.496094 171.230469 70.246094 171.035156 C 69.996094 170.84375 69.738281 170.660156 69.476562 170.484375 C 69.210938 170.308594 68.941406 170.144531 68.667969 169.984375 L 33.148438 149.511719 C 32.015625 148.859375 30.824219 148.367188 29.5625 148.039062 C 28.296875 147.710938 27.015625 147.550781 25.710938 147.570312 Z M 25.710938 147.570312 " clip-rule="nonzero"/>
    </clipPath>
    <clipPath id="850fe7cc13">
      <path d="M 18.90625 135.40625 L 58.894531 135.40625 L 58.894531 229.699219 L 18.90625 229.699219 Z M 18.90625 135.40625 " clip-rule="nonzero"/>
    </clipPath>
    <clipPath id="6d434cd492">
      <path d="M 36.746094 135.484375 C 26.652344 136.371094 18.90625 144.808594 18.90625 154.925781 L 18.90625 210.128906 C 18.90625 220.246094 26.652344 228.683594 36.746094 229.570312 C 27.835938 225.238281 27.398438 213.59375 36.03125 208.617188 L 48.746094 200.839844 C 55.261719 197.082031 58.808594 189.101562 58.808594 182.527344 C 58.808594 175.953125 55.261719 167.972656 48.746094 164.214844 L 36.03125 156.4375 C 27.398438 151.460938 27.835938 139.820312 36.746094 135.484375 Z M 36.746094 135.484375 " clip-rule="nonzero"/>
    </clipPath>
    <clipPath id="e76af8c600">
      <path d="M 18.90625 182.277344 L 55.839844 182.277344 L 55.839844 229.699219 L 18.90625 229.699219 Z M 18.90625 182.277344 " clip-rule="nonzero"/>
    </clipPath>
    <clipPath id="86991ac733">
      <path d="M 36.746094 229.570312 C 26.652344 228.683594 18.90625 220.246094 18.90625 210.128906 L 18.90625 182.527344 L 55.824219 182.527344 C 55.824219 189.101562 52.566406 195.675781 46.050781 199.433594 L 32.753906 207.097656 C 24.121094 212.074219 23.617188 226.054688 36.746094 229.570312 Z M 36.746094 229.570312 " clip-rule="nonzero"/>
    </clipPath>
  </defs>
  <g clip-path="url(#5cd0b8c14f)">
    <g clip-path="url(#5d89d8c40f)">
      <path fill="#8437fd" d="M 18.90625 135.40625 L 18.90625 229.648438 L 105.90625 229.648438 L 105.90625 135.40625 Z M 18.90625 135.40625 " fill-opacity="1" fill-rule="nonzero"/>
    </g>
  </g>
  <g clip-path="url(#91015f71ee)">
    <g clip-path="url(#e70113a07a)">
      <path fill="#6a2bcf" d="M 18.90625 136.660156 L 18.90625 228.390625 L 94.894531 228.390625 L 94.894531 136.660156 Z M 18.90625 136.660156 " fill-opacity="1" fill-rule="nonzero"/>
    </g>
  </g>
  <g clip-path="url(#982d115651)">
    <g clip-path="url(#6bb9a418e4)">
      <path fill="#5622aa" d="M 18.90625 142.40625 L 18.90625 222.632812 L 85.457031 222.632812 L 85.457031 142.40625 Z M 18.90625 142.40625 " fill-opacity="1" fill-rule="nonzero"/>
    </g>
  </g>
  <g clip-path="url(#6390fc841b)">
    <g clip-path="url(#db9108d8d0)">
      <path fill="#3e187b" d="M 18.90625 147.550781 L 18.90625 217.511719 L 75.917969 217.511719 L 75.917969 147.550781 Z M 18.90625 147.550781 " fill-opacity="1" fill-rule="nonzero"/>
    </g>
  </g>
  <g clip-path="url(#850fe7cc13)">
    <g clip-path="url(#6d434cd492)">
      <path fill="#00efc8" d="M 18.90625 135.484375 L 18.90625 229.570312 L 58.808594 229.570312 L 58.808594 135.484375 Z M 18.90625 135.484375 " fill-opacity="1" fill-rule="nonzero"/>
    </g>
  </g>
  <g clip-path="url(#e76af8c600)">
    <g clip-path="url(#86991ac733)">
      <path fill="#00efc8" d="M 18.90625 182.527344 L 55.824219 182.527344 L 55.824219 229.570312 L 18.90625 229.570312 Z M 18.90625 182.527344 " fill-opacity="1" fill-rule="nonzero"/>
    </g>
  </g>
  <g fill="#00223a" fill-opacity="1">
    <g transform="translate(123.490338, 196.550089)">
      <g>
        <path d="M 13.9375 0.375 C 12.050781 0.375 10.34375 0.0703125 8.8125 -0.53125 C 7.28125 -1.132812 5.972656 -2.007812 4.890625 -3.15625 C 3.816406 -4.3125 2.984375 -5.726562 2.390625 -7.40625 C 1.796875 -9.09375 1.5 -11.019531 1.5 -13.1875 C 1.5 -15.34375 1.796875 -17.257812 2.390625 -18.9375 C 2.984375 -20.625 3.816406 -22.039062 4.890625 -23.1875 C 5.972656 -24.34375 7.28125 -25.222656 8.8125 -25.828125 C 10.34375 -26.429688 12.050781 -26.734375 13.9375 -26.734375 C 15.8125 -26.734375 17.515625 -26.429688 19.046875 -25.828125 C 20.578125 -25.222656 21.882812 -24.34375 22.96875 -23.1875 C 24.050781 -22.039062 24.882812 -20.625 25.46875 -18.9375 C 26.0625 -17.257812 26.359375 -15.34375 26.359375 -13.1875 C 26.359375 -11.019531 26.0625 -9.09375 25.46875 -7.40625 C 24.882812 -5.726562 24.050781 -4.3125 22.96875 -3.15625 C 21.882812 -2.007812 20.578125 -1.132812 19.046875 -0.53125 C 17.515625 0.0703125 15.8125 0.375 13.9375 0.375 Z M 13.9375 -4.703125 C 14.914062 -4.703125 15.816406 -4.878906 16.640625 -5.234375 C 17.472656 -5.585938 18.1875 -6.113281 18.78125 -6.8125 C 19.382812 -7.519531 19.859375 -8.40625 20.203125 -9.46875 C 20.546875 -10.539062 20.71875 -11.78125 20.71875 -13.1875 C 20.71875 -14.582031 20.546875 -15.8125 20.203125 -16.875 C 19.859375 -17.945312 19.382812 -18.832031 18.78125 -19.53125 C 18.1875 -20.238281 17.472656 -20.769531 16.640625 -21.125 C 15.816406 -21.476562 14.914062 -21.65625 13.9375 -21.65625 C 12.957031 -21.65625 12.050781 -21.476562 11.21875 -21.125 C 10.394531 -20.769531 9.679688 -20.238281 9.078125 -19.53125 C 8.472656 -18.832031 8 -17.945312 7.65625 -16.875 C 7.320312 -15.8125 7.15625 -14.582031 7.15625 -13.1875 C 7.15625 -11.78125 7.320312 -10.539062 7.65625 -9.46875 C 8 -8.40625 8.472656 -7.519531 9.078125 -6.8125 C 9.679688 -6.113281 10.394531 -5.585938 11.21875 -5.234375 C 12.050781 -4.878906 12.957031 -4.703125 13.9375 -4.703125 Z M 13.9375 -4.703125 "/>
      </g>
    </g>
  </g>
  <g fill="#00223a" fill-opacity="1">
    <g transform="translate(151.352623, 196.550089)">
      <g>
        <path d="M 2.640625 -26.359375 L 9.984375 -26.359375 L 19.953125 -8.28125 L 20.140625 -8.28125 L 20.140625 -26.359375 L 25.796875 -26.359375 L 25.796875 0 L 18.453125 0 L 8.46875 -18.078125 L 8.28125 -18.078125 L 8.28125 0 L 2.640625 0 Z M 2.640625 -26.359375 "/>
      </g>
    </g>
  </g>
  <g fill="#00223a" fill-opacity="1">
    <g transform="translate(179.779685, 196.550089)">
      <g>
        <path d="M 2.640625 -26.359375 L 13.9375 -26.359375 C 15.238281 -26.359375 16.4375 -26.148438 17.53125 -25.734375 C 18.625 -25.316406 19.554688 -24.734375 20.328125 -23.984375 C 21.109375 -23.234375 21.710938 -22.320312 22.140625 -21.25 C 22.566406 -20.1875 22.78125 -19.003906 22.78125 -17.703125 C 22.78125 -16.046875 22.488281 -14.679688 21.90625 -13.609375 C 21.332031 -12.546875 20.707031 -11.703125 20.03125 -11.078125 C 19.226562 -10.347656 18.328125 -9.796875 17.328125 -9.421875 L 23.71875 0 L 17.328125 0 L 11.296875 -9.03125 L 8.28125 -9.03125 L 8.28125 0 L 2.640625 0 Z M 13.5625 -14.125 C 14.613281 -14.125 15.472656 -14.4375 16.140625 -15.0625 C 16.804688 -15.6875 17.140625 -16.566406 17.140625 -17.703125 C 17.140625 -18.828125 16.804688 -19.703125 16.140625 -20.328125 C 15.472656 -20.960938 14.613281 -21.28125 13.5625 -21.28125 L 8.28125 -21.28125 L 8.28125 -14.125 Z M 13.5625 -14.125 "/>
      </g>
    </g>
  </g>
  <g fill="#00223a" fill-opacity="1">
    <g transform="translate(204.441573, 196.550089)">
      <g>
        <path d="M 2.640625 -26.359375 L 20.515625 -26.359375 L 20.515625 -21.28125 L 8.28125 -21.28125 L 8.28125 -15.625 L 19.765625 -15.625 L 19.765625 -10.921875 L 8.28125 -10.921875 L 8.28125 -5.078125 L 20.90625 -5.078125 L 20.90625 0 L 2.640625 0 Z M 2.640625 -26.359375 "/>
      </g>
    </g>
  </g>
  <g fill="#00223a" fill-opacity="1">
    <g transform="translate(227.032622, 196.550089)">
      <g>
        <path d="M 2.640625 -26.359375 L 13.5625 -26.359375 C 14.914062 -26.359375 16.160156 -26.128906 17.296875 -25.671875 C 18.441406 -25.222656 19.414062 -24.601562 20.21875 -23.8125 C 21.019531 -23.019531 21.644531 -22.066406 22.09375 -20.953125 C 22.550781 -19.835938 22.78125 -18.628906 22.78125 -17.328125 C 22.78125 -15.992188 22.550781 -14.773438 22.09375 -13.671875 C 21.644531 -12.566406 21.019531 -11.617188 20.21875 -10.828125 C 19.414062 -10.035156 18.441406 -9.410156 17.296875 -8.953125 C 16.160156 -8.503906 14.914062 -8.28125 13.5625 -8.28125 L 8.28125 -8.28125 L 8.28125 0 L 2.640625 0 Z M 12.984375 -13.375 C 14.316406 -13.375 15.34375 -13.722656 16.0625 -14.421875 C 16.78125 -15.128906 17.140625 -16.097656 17.140625 -17.328125 C 17.140625 -18.554688 16.78125 -19.519531 16.0625 -20.21875 C 15.34375 -20.925781 14.316406 -21.28125 12.984375 -21.28125 L 8.28125 -21.28125 L 8.28125 -13.375 Z M 12.984375 -13.375 "/>
      </g>
    </g>
  </g>
  <g fill="#00223a" fill-opacity="1">
    <g transform="translate(251.317982, 196.550089)">
      <g>
        <path d="M 2.640625 -26.359375 L 8.28125 -26.359375 L 8.28125 -5.078125 L 20.328125 -5.078125 L 20.328125 0 L 2.640625 0 Z M 2.640625 -26.359375 "/>
      </g>
    </g>
  </g>
  <g fill="#00223a" fill-opacity="1">
    <g transform="translate(272.402947, 196.550089)">
      <g>
        <path d="M 8.65625 -9.03125 L -0.5625 -26.359375 L 5.453125 -26.359375 L 11.375 -14.875 L 11.5625 -14.875 L 17.515625 -26.359375 L 23.53125 -26.359375 L 14.3125 -9.03125 L 14.3125 0 L 8.65625 0 Z M 8.65625 -9.03125 "/>
      </g>
    </g>
  </g>
  <g fill="#00223a" fill-opacity="1">
    <g transform="translate(295.370499, 196.550089)">
      <g>
        <path d="M 4.328125 0.1875 C 3.472656 0.1875 2.753906 -0.0976562 2.171875 -0.671875 C 1.597656 -1.253906 1.3125 -1.972656 1.3125 -2.828125 C 1.3125 -3.679688 1.597656 -4.394531 2.171875 -4.96875 C 2.753906 -5.550781 3.472656 -5.84375 4.328125 -5.84375 C 5.179688 -5.84375 5.894531 -5.550781 6.46875 -4.96875 C 7.050781 -4.394531 7.34375 -3.679688 7.34375 -2.828125 C 7.34375 -1.972656 7.050781 -1.253906 6.46875 -0.671875 C 5.894531 -0.0976562 5.179688 0.1875 4.328125 0.1875 Z M 4.328125 0.1875 "/>
      </g>
    </g>
  </g>
  <g fill="#00223a" fill-opacity="1">
    <g transform="translate(304.030406, 196.550089)">
      <g>
        <path d="M 2.640625 -26.359375 L 8.28125 -26.359375 L 8.28125 0 L 2.640625 0 Z M 2.640625 -26.359375 "/>
      </g>
    </g>
  </g>
  <g fill="#00223a" fill-opacity="1">
    <g transform="translate(314.949404, 196.550089)">
      <g>
        <path d="M 13.9375 0.375 C 12.050781 0.375 10.34375 0.0703125 8.8125 -0.53125 C 7.28125 -1.132812 5.972656 -2.007812 4.890625 -3.15625 C 3.816406 -4.3125 2.984375 -5.726562 2.390625 -7.40625 C 1.796875 -9.09375 1.5 -11.019531 1.5 -13.1875 C 1.5 -15.34375 1.796875 -17.257812 2.390625 -18.9375 C 2.984375 -20.625 3.816406 -22.039062 4.890625 -23.1875 C 5.972656 -24.34375 7.28125 -25.222656 8.8125 -25.828125 C 10.34375 -26.429688 12.050781 -26.734375 13.9375 -26.734375 C 15.8125 -26.734375 17.515625 -26.429688 19.046875 -25.828125 C 20.578125 -25.222656 21.882812 -24.34375 22.96875 -23.1875 C 24.050781 -22.039062 24.882812 -20.625 25.46875 -18.9375 C 26.0625 -17.257812 26.359375 -15.34375 26.359375 -13.1875 C 26.359375 -11.019531 26.0625 -9.09375 25.46875 -7.40625 C 24.882812 -5.726562 24.050781 -4.3125 22.96875 -3.15625 C 21.882812 -2.007812 20.578125 -1.132812 19.046875 -0.53125 C 17.515625 0.0703125 15.8125 0.375 13.9375 0.375 Z M 13.9375 -4.703125 C 14.914062 -4.703125 15.816406 -4.878906 16.640625 -5.234375 C 17.472656 -5.585938 18.1875 -6.113281 18.78125 -6.8125 C 19.382812 -7.519531 19.859375 -8.40625 20.203125 -9.46875 C 20.546875 -10.539062 20.71875 -11.78125 20.71875 -13.1875 C 20.71875 -14.582031 20.546875 -15.8125 20.203125 -16.875 C 19.859375 -17.945312 19.382812 -18.832031 18.78125 -19.53125 C 18.1875 -20.238281 17.472656 -20.769531 16.640625 -21.125 C 15.816406 -21.476562 14.914062 -21.65625 13.9375 -21.65625 C 12.957031 -21.65625 12.050781 -21.476562 11.21875 -21.125 C 10.394531 -20.769531 9.679688 -20.238281 9.078125 -19.53125 C 8.472656 -18.832031 8 -17.945312 7.65625 -16.875 C 7.320312 -15.8125 7.15625 -14.582031 7.15625 -13.1875 C 7.15625 -11.78125 7.320312 -10.539062 7.65625 -9.46875 C 8 -8.40625 8.472656 -7.519531 9.078125 -6.8125 C 9.679688 -6.113281 10.394531 -5.585938 11.21875 -5.234375 C 12.050781 -4.878906 12.957031 -4.703125 13.9375 -4.703125 Z M 13.9375 -4.703125 "/>
      </g>
    </g>
  </g>
</svg>